<svg width="64" height="48" viewBox="0 0 64 48" fill="none" xmlns="http://www.w3.org/2000/svg">
<path d="M53.3333 0H10.6667C4.8 0 0 4.8 0 10.6667V37.3333C0 43.2 4.8 48 10.6667 48H53.3333C59.2 48 64 43.2 64 37.3333V10.6667C64 4.8 59.2 0 53.3333 0ZM57.6 15.4667L36.5333 29.6C35.2 30.4 33.6 30.9333 32 30.9333C30.4 30.9333 28.8 30.4 27.4667 29.6L6.4 15.4667C5.33333 14.6667 5.06667 13.0667 5.86667 11.7333C6.66667 10.6667 8.26667 10.4 9.6 11.2L30.6667 25.3333C31.4667 25.8667 32.8 25.8667 33.6 25.3333L54.6667 11.2C56 10.4 57.6 10.6667 58.4 12C58.9333 13.0667 58.6667 14.6667 57.6 15.4667Z" fill="#222E50"/>
</svg>
