<svg width="64" height="64" viewBox="0 0 64 64" fill="none" xmlns="http://www.w3.org/2000/svg">
<path d="M57.8045 21.9851C57.5525 22.4735 57.2739 22.9477 56.9701 23.4057L49.866 33.3522C49.272 34.182 48.4888 34.8584 47.5812 35.3253C46.6737 35.7921 45.6681 36.036 44.6475 36.0368C44.0167 36.0266 43.391 35.9223 42.791 35.7275V56.2936L55.1366 60.1718C55.3358 60.2321 55.543 60.2626 55.7512 60.2623C56.0319 60.2624 56.3098 60.2071 56.5692 60.0998C56.8285 59.9924 57.0642 59.835 57.2626 59.6365C57.4611 59.438 57.6185 59.2024 57.7259 58.943C57.8333 58.6837 57.8885 58.4057 57.8884 58.125V22.5C57.8819 22.3256 57.8537 22.1526 57.8045 21.9851Z" fill="#222E50"/>
<path d="M29.9986 18.4597L25.5078 19.696V59.7526L38.5145 56.1727V32.0731L32.3236 23.4068C31.2558 21.912 30.4681 20.2358 29.9986 18.4597Z" fill="#222E50"/>
<path d="M6.97491 16.0349C6.70743 16.2337 6.4902 16.4924 6.34059 16.7902C6.19098 17.088 6.11313 17.4167 6.11328 17.75V53.375C6.11316 53.8346 6.26123 54.2819 6.53553 54.6507C6.80983 55.0194 7.19572 55.2898 7.63592 55.4218L21.2336 59.6929V19.5887L8.86517 15.7032C8.54609 15.607 8.2089 15.5869 7.88063 15.6444C7.55237 15.702 7.24217 15.8358 6.97491 16.0349Z" fill="#222E50"/>
<path d="M42.9072 30.867C43.1049 31.1439 43.3659 31.3696 43.6685 31.5253C43.971 31.681 44.3064 31.7623 44.6467 31.7623C44.9869 31.7623 45.3223 31.681 45.6248 31.5253C45.9274 31.3696 46.1884 31.1439 46.3862 30.867L53.4903 20.9217C54.6507 19.2968 55.341 17.3837 55.4855 15.3923C55.63 13.4009 55.2231 11.4081 54.3094 9.63277C53.3957 7.85744 52.0105 6.36815 50.306 5.32836C48.6014 4.28858 46.6433 3.73849 44.6467 3.73849C42.65 3.73849 40.6919 4.28858 38.9874 5.32836C37.2828 6.36815 35.8977 7.85744 34.984 9.63277C34.0702 11.4081 33.6633 13.4009 33.8078 15.3923C33.9523 17.3837 34.6426 19.2968 35.803 20.9217L42.9072 30.867ZM44.6467 11.0431C45.3513 11.0431 46.04 11.252 46.6259 11.6435C47.2117 12.0349 47.6683 12.5913 47.938 13.2423C48.2076 13.8932 48.2782 14.6095 48.1407 15.3006C48.0032 15.9916 47.664 16.6264 47.1657 17.1246C46.6675 17.6229 46.0327 17.9622 45.3417 18.0996C44.6506 18.2371 43.9343 18.1665 43.2833 17.8969C42.6324 17.6272 42.076 17.1706 41.6845 16.5848C41.2931 15.9989 41.0842 15.3102 41.0842 14.6056C41.0841 14.1377 41.1763 13.6745 41.3553 13.2422C41.5343 12.81 41.7967 12.4173 42.1276 12.0865C42.4584 11.7557 42.8511 11.4932 43.2833 11.3142C43.7156 11.1352 44.1788 11.0431 44.6467 11.0431Z" fill="#222E50"/>
</svg>
