<svg width="64" height="65" viewBox="0 0 64 65" fill="none" xmlns="http://www.w3.org/2000/svg">
<path d="M35.5745 23.1374C34.2895 22.0944 32.3982 22.278 31.3557 23.5631C30.2995 24.8499 30.487 26.7374 31.7745 27.7874C33.1882 28.9436 34.0007 30.6236 34.0007 32.3961C34.0007 34.1699 33.1882 35.8486 31.7745 37.0049C30.4895 38.0556 30.302 39.9461 31.3526 41.2274C31.9425 41.9539 32.8051 42.3289 33.6726 42.3289C34.3406 42.3289 35.0163 42.1063 35.5713 41.6531C38.3876 39.3481 40.0013 35.9781 40.0013 32.3969C40.0013 28.8156 38.387 25.4499 35.5745 23.1374ZM43.137 13.7874C41.8595 12.7444 39.9695 12.924 38.9145 14.2053C37.8637 15.4865 38.0512 17.3765 39.3325 18.4278C43.5675 21.9003 45.9962 26.9503 45.9962 32.2903C45.9962 37.6303 43.5662 42.6765 39.3325 46.1528C38.0512 47.2035 37.8637 49.094 38.9145 50.3753C39.5082 51.0979 40.367 51.4729 41.2345 51.4729C41.9063 51.4729 42.5782 51.2503 43.137 50.7931C48.7745 46.2874 51.9995 39.5374 51.9995 32.2874C51.9995 25.0374 48.7745 18.5124 43.137 13.7874ZM50.7995 4.54364C49.522 3.50064 47.632 3.68426 46.577 4.96164C45.5262 6.24289 45.7137 8.13289 46.995 9.18414C53.987 14.9124 57.9995 23.3749 57.9995 32.2874C57.9995 41.1999 53.9882 49.7749 46.992 55.4999C45.7107 56.5506 45.5232 58.4411 46.574 59.7224C47.1677 60.445 48.0265 60.82 48.894 60.82C49.5658 60.82 50.2377 60.5974 50.7965 60.1403C59.187 53.3749 63.9995 43.2249 63.9995 32.2874C63.9995 21.3499 59.187 11.4186 50.7995 4.54364ZM18.912 22.2249C20.137 22.3499 21.512 21.5874 21.9995 20.3499L26.2182 9.80239C26.7495 8.44364 26.137 6.78739 25.0245 6.13239L16.5907 0.861139C15.3995 0.113764 13.862 0.288076 12.862 1.28489C-4.29055 18.4374 -4.2893 46.3624 12.862 63.5124C13.8597 64.5104 15.3895 64.6848 16.5807 63.9376L25.0157 58.6639C26.2376 57.9009 26.7532 56.3551 26.2155 55.0014L21.9995 44.4624C21.5063 43.217 20.232 42.4486 18.9082 42.5911L12.2532 43.2554C9.8607 36.2374 9.8607 28.5749 12.257 21.5624L18.912 22.2249Z" fill="#222E50"/>
</svg>
