<svg width="48" height="48" viewBox="0 0 48 48" fill="none" xmlns="http://www.w3.org/2000/svg">
<g clip-path="url(#clip0_212_824)">
<path d="M46.5999 24C46.5999 26.2 43.5999 28 42.9999 30.2C42.3999 32.4 43.5999 35.6 42.3999 37.2C40.9999 39 37.5999 38.8 35.7999 40C33.9999 41.2 33.1999 44.6 30.9999 45.4C28.9999 46 26.3999 43.8 23.9999 43.8C21.7999 43.8 19.1999 46 16.9999 45.4C14.7999 44.8 13.9999 41.4 12.1999 40C10.3999 38.6 6.9999 39 5.5999 37.2C4.3999 35.4 5.5999 32.2 4.9999 30.2C4.3999 28.2 1.3999 26.4 1.3999 24C1.3999 21.8 4.3999 20 4.9999 17.8C5.5999 15.6 4.3999 12.4 5.5999 10.8C7.1999 8.99999 10.5999 9.19999 12.3999 7.99999C14.1999 6.79999 14.9999 3.39999 17.1999 2.59999C19.1999 1.99999 21.7999 4.19999 24.1999 4.19999C26.3999 4.19999 28.9999 1.99999 31.1999 2.59999C33.3999 3.19999 34.1999 6.59999 35.9999 7.99999C37.7999 9.39999 41.1999 8.99999 42.5999 10.8C43.7999 12.6 42.5999 15.8 43.1999 17.8C43.5999 20 46.5999 21.8 46.5999 24Z" stroke="white" stroke-width="4" stroke-miterlimit="10" stroke-linecap="round" stroke-linejoin="round"/>
<path d="M15.7998 24.2L21.1998 29.4L32.1998 18.6" stroke="white" stroke-width="4" stroke-miterlimit="10" stroke-linecap="round" stroke-linejoin="round"/>
</g>
<defs>
<clipPath id="clip0_212_824">
<rect width="48" height="48" fill="white"/>
</clipPath>
</defs>
</svg>
