<svg width="48" height="48" viewBox="0 0 48 48" fill="none" xmlns="http://www.w3.org/2000/svg">
<path d="M12 18H36" stroke="white" stroke-width="2" stroke-miterlimit="10" stroke-linecap="round" stroke-linejoin="round"/>
<path d="M20.2502 12.15L18.4502 5.85C21.9002 4.05 26.1002 4.05 29.5502 5.85L27.7502 12.15" stroke="white" stroke-width="2" stroke-miterlimit="10" stroke-linecap="round" stroke-linejoin="round"/>
<path d="M29.25 7.35001C32.25 9.15001 34.2 12.45 34.2 16.2V18" stroke="white" stroke-width="2" stroke-miterlimit="10" stroke-linecap="round" stroke-linejoin="round"/>
<path d="M13.7998 18V16.2C13.7998 12.45 15.7498 9.15001 18.7498 7.35001" stroke="white" stroke-width="2" stroke-miterlimit="10" stroke-linecap="round" stroke-linejoin="round"/>
<path d="M32.4 35.1C29.7 34.35 27.75 31.65 27.75 28.5C29.7 27.3 30.9 25.05 31.35 22.5C28.05 22.5 25.2 20.7 23.7 18H16.5V21C16.5 24.15 17.85 27 20.25 28.5C20.25 31.65 18.3 34.35 15.45 35.1C12.15 36 9.75 39 9 42.6C9 43.05 9.3 43.5 9.75 43.5H38.4C38.85 43.5 39.15 43.05 39 42.6C38.25 38.85 35.7 36 32.4 35.1Z" stroke="white" stroke-width="2" stroke-miterlimit="10" stroke-linejoin="round"/>
</svg>
