<svg width="31" height="19" viewBox="0 0 31 19" fill="none" xmlns="http://www.w3.org/2000/svg">
<path d="M30.32 0H0V18.9292H30.32V0Z" fill="white"/>
<path d="M20.2995 6.84416L30.3193 0.836508V0H29.6264L18.2031 6.84416H20.2995Z" fill="#BD0034"/>
<path d="M19.8262 12.4652L30.3197 18.7454V17.4906L21.9225 12.4652H19.8262Z" fill="#BD0034"/>
<path d="M0 1.43847L8.97164 6.84408H11.0739L0 0.177368V1.43847Z" fill="#BD0034"/>
<path d="M10.5942 12.4652L0 18.8151V18.9291H1.91277L12.6965 12.4652H10.5942Z" fill="#BD0034"/>
<path d="M28.2468 0H17.6289V6.36253L28.2468 0Z" fill="#1A237B"/>
<path d="M12.9397 0H2.36914L12.9397 6.36253V0Z" fill="#1A237B"/>
<path d="M30.3201 6.84419V2.49689L23.1191 6.84419H30.3201Z" fill="#1A237B"/>
<path d="M30.3201 16.7555V12.4652H23.1191L30.3201 16.7555Z" fill="#1A237B"/>
<path d="M2.9668 18.9292H12.9392V12.9406L2.9668 18.9292Z" fill="#1A237B"/>
<path d="M17.6289 18.9292H27.631L17.6289 12.9406V18.9292Z" fill="#1A237B"/>
<path d="M0 12.4652V16.9519L7.44972 12.4652H0Z" fill="#1A237B"/>
<path d="M0 6.84419H7.44972L0 2.34479V6.84419Z" fill="#1A237B"/>
<path d="M13.8809 0V7.96584H0V11.3372H13.8809V18.9292H16.6938V11.3372H30.32V7.96584H16.6938V0H13.8809Z" fill="#BD0034"/>
</svg>
