<svg width="40" height="40" viewBox="0 0 40 40" fill="none" xmlns="http://www.w3.org/2000/svg">
<path fill-rule="evenodd" clip-rule="evenodd" d="M40 5C40 2.24039 37.7596 0 35 0H5C2.24039 0 0 2.24039 0 5V35C0 37.7596 2.24039 40 5 40H35C37.7596 40 40 37.7596 40 35V5Z" fill="white"/>
<path d="M11.4695 13.9585H4.76953V34.1118H11.4695V13.9585Z" fill="#222E50"/>
<path d="M8.165 4.24072C5.87273 4.24072 4.375 5.74775 4.375 7.72299C4.375 9.65674 5.82719 11.2053 8.07633 11.2053H8.11961C10.4558 11.2053 11.9099 9.65674 11.9099 7.72299C11.8666 5.74775 10.4559 4.24072 8.165 4.24072Z" fill="#222E50"/>
<path d="M27.9122 13.4846C24.3583 13.4846 22.7664 15.4391 21.875 16.8119V13.9585H15.1768C15.2656 15.8489 15.1768 34.1117 15.1768 34.1117H21.875V22.8567C21.875 22.2543 21.9182 21.652 22.0958 21.2215C22.5793 20.0184 23.6821 18.7721 25.5328 18.7721C27.9556 18.7721 28.9262 20.6209 28.9262 23.3289V34.1117H35.6247V22.5547C35.6247 16.3643 32.3196 13.4846 27.9122 13.4846Z" fill="#222E50"/>
</svg>
