<svg width="24" height="24" viewBox="0 0 24 24" fill="none" xmlns="http://www.w3.org/2000/svg">
<g clip-path="url(#clip0_576_406)">
<path d="M16.5001 14.25C16.3044 14.2512 16.116 14.1758 15.9751 14.04L12.7951 10.965C12.3069 10.498 11.9183 9.9369 11.6528 9.3156C11.3874 8.69429 11.2505 8.02565 11.2505 7.35001C11.2505 6.67436 11.3874 6.00572 11.6528 5.38442C11.9183 4.76312 12.3069 4.20203 12.7951 3.73501C13.7947 2.78484 15.121 2.255 16.5001 2.255C17.8792 2.255 19.2056 2.78484 20.2051 3.73501C20.6934 4.20203 21.082 4.76312 21.3474 5.38442C21.6129 6.00572 21.7498 6.67436 21.7498 7.35001C21.7498 8.02565 21.6129 8.69429 21.3474 9.3156C21.082 9.9369 20.6934 10.498 20.2051 10.965L17.0251 14.04C16.8842 14.1758 16.6958 14.2512 16.5001 14.25ZM16.5001 3.75001C15.5077 3.74393 14.5521 4.12614 13.8376 4.81501C13.4936 5.14154 13.2196 5.53469 13.0324 5.9705C12.8452 6.40632 12.7486 6.87568 12.7486 7.35001C12.7486 7.82434 12.8452 8.2937 13.0324 8.72952C13.2196 9.16533 13.4936 9.55848 13.8376 9.88501L16.5001 12.4575L19.1626 9.88501C19.5067 9.55848 19.7806 9.16533 19.9679 8.72952C20.1551 8.2937 20.2516 7.82434 20.2516 7.35001C20.2516 6.87568 20.1551 6.40632 19.9679 5.9705C19.7806 5.53469 19.5067 5.14154 19.1626 4.81501C18.4473 4.1275 17.4923 3.74552 16.5001 3.75001Z" fill="#242424"/>
<path d="M8.25001 21.75C8.11862 21.7509 7.98931 21.7173 7.87501 21.6525L2.62501 18.6525C2.51055 18.5864 2.41559 18.4913 2.34974 18.3767C2.28389 18.2621 2.24948 18.1321 2.25001 18V4.49999C2.24948 4.36783 2.28389 4.23788 2.34974 4.1233C2.41559 4.00872 2.51055 3.91357 2.62501 3.84749C2.73902 3.78166 2.86835 3.74701 3.00001 3.74701C3.13166 3.74701 3.26099 3.78166 3.37501 3.84749L8.62501 6.84749C8.73946 6.91357 8.83442 7.00872 8.90027 7.1233C8.96612 7.23788 9.00053 7.36783 9.00001 7.49999V21C9.00053 21.1321 8.96612 21.2621 8.90027 21.3767C8.83442 21.4913 8.73946 21.5864 8.62501 21.6525C8.5107 21.7173 8.38139 21.7509 8.25001 21.75ZM3.75001 17.565L7.50001 19.71V7.93499L3.75001 5.78999V17.565Z" fill="#242424"/>
<path d="M8.25001 21.75C8.11862 21.7509 7.98931 21.7173 7.87501 21.6525C7.76055 21.5865 7.66559 21.4913 7.59974 21.3767C7.53389 21.2621 7.49948 21.1322 7.50001 21V7.50003C7.49948 7.36788 7.53389 7.23793 7.59974 7.12334C7.66559 7.00876 7.76055 6.91361 7.87501 6.84754L12.375 4.27503C12.4611 4.22575 12.556 4.19402 12.6544 4.18167C12.7528 4.16933 12.8527 4.17662 12.9482 4.20313C13.0438 4.22963 13.1331 4.27482 13.2111 4.33609C13.2891 4.39735 13.3541 4.47347 13.4025 4.56003C13.5003 4.73225 13.526 4.93614 13.474 5.12723C13.422 5.31832 13.2966 5.4811 13.125 5.58003L9.00001 7.93503V19.71L13.125 17.3475C13.2107 17.2983 13.3052 17.2664 13.4033 17.2537C13.5013 17.241 13.6008 17.2477 13.6962 17.2735C13.7916 17.2993 13.881 17.3436 13.9593 17.4039C14.0376 17.4642 14.1033 17.5393 14.1525 17.625C14.2018 17.7107 14.2336 17.8053 14.2463 17.9033C14.259 18.0013 14.2523 18.1008 14.2266 18.1963C14.2008 18.2917 14.1565 18.3811 14.0962 18.4594C14.0358 18.5376 13.9607 18.6033 13.875 18.6525L8.62501 21.6525C8.5107 21.7173 8.38139 21.7509 8.25001 21.75Z" fill="#242424"/>
<path d="M18.75 21.75C18.6186 21.7509 18.4893 21.7173 18.375 21.6525L13.125 18.6525C13.0106 18.5864 12.9156 18.4913 12.8497 18.3767C12.7839 18.2621 12.7495 18.1322 12.75 18V11.25C12.75 11.0511 12.829 10.8603 12.9697 10.7197C13.1103 10.579 13.3011 10.5 13.5 10.5C13.6989 10.5 13.8897 10.579 14.0303 10.7197C14.171 10.8603 14.25 11.0511 14.25 11.25V17.565L18 19.71V12C18 11.8011 18.079 11.6103 18.2197 11.4697C18.3603 11.329 18.5511 11.25 18.75 11.25C18.9489 11.25 19.1397 11.329 19.2803 11.4697C19.421 11.6103 19.5 11.8011 19.5 12V21C19.5005 21.1322 19.4661 21.2621 19.4003 21.3767C19.3344 21.4913 19.2395 21.5864 19.125 21.6525C19.0107 21.7173 18.8814 21.7509 18.75 21.75Z" fill="#242424"/>
<path d="M16.5 9.75C16.055 9.75 15.62 9.61804 15.25 9.37081C14.88 9.12357 14.5916 8.77217 14.4213 8.36104C14.251 7.9499 14.2064 7.49751 14.2932 7.06105C14.3801 6.62459 14.5943 6.22368 14.909 5.90901C15.2237 5.59434 15.6246 5.38005 16.061 5.29323C16.4975 5.20642 16.9499 5.25097 17.361 5.42127C17.7722 5.59157 18.1236 5.87996 18.3708 6.24997C18.618 6.61998 18.75 7.05499 18.75 7.5C18.75 8.09674 18.5129 8.66903 18.091 9.09099C17.669 9.51295 17.0967 9.75 16.5 9.75ZM16.5 6.75C16.3517 6.75 16.2067 6.79399 16.0833 6.8764C15.96 6.95881 15.8639 7.07594 15.8071 7.21299C15.7503 7.35003 15.7355 7.50083 15.7644 7.64632C15.7934 7.7918 15.8648 7.92544 15.9697 8.03033C16.0746 8.13522 16.2082 8.20665 16.3537 8.23559C16.4992 8.26453 16.65 8.24968 16.787 8.19291C16.9241 8.13615 17.0412 8.04002 17.1236 7.91668C17.206 7.79334 17.25 7.64834 17.25 7.5C17.25 7.30109 17.171 7.11032 17.0303 6.96967C16.8897 6.82902 16.6989 6.75 16.5 6.75Z" fill="#242424"/>
</g>
<defs>
<clipPath id="clip0_576_406">
<rect width="24" height="24" fill="white"/>
</clipPath>
</defs>
</svg>
