<svg width="32" height="32" viewBox="0 0 32 32" fill="none" xmlns="http://www.w3.org/2000/svg">
<path d="M23.4514 32.0002C22.2063 31.9909 20.9667 31.8347 19.7582 31.5346C15.5851 30.5277 11.2878 27.9735 7.65987 24.3424C4.03195 20.7113 1.47458 16.4132 0.467711 12.244C-0.592488 7.85838 0.16366 4.1063 2.59448 1.67548L3.28854 0.981417C3.91826 0.352958 4.77158 0 5.66125 0C6.55092 0 7.40424 0.352958 8.03396 0.981417L12.0224 4.9691C12.6513 5.59861 13.0045 6.45202 13.0045 7.34181C13.0045 8.23161 12.6513 9.08501 12.0224 9.71452L9.66644 12.0697C10.7959 14.0516 12.3321 16.0351 14.1476 17.8507C15.9632 19.6662 17.9483 21.2032 19.9294 22.3326L22.2846 19.9766C22.5961 19.665 22.966 19.4177 23.3731 19.2491C23.7802 19.0804 24.2166 18.9936 24.6573 18.9936C25.0979 18.9936 25.5343 19.0804 25.9414 19.2491C26.3485 19.4177 26.7184 19.665 27.03 19.9766L31.0177 23.9643C31.6467 24.5936 32 25.4469 32 26.3366C32 27.2264 31.6467 28.0797 31.0177 28.709L30.3228 29.403C28.6091 31.1199 26.2372 32.0002 23.4514 32.0002ZM5.66125 2.38626C5.53417 2.38563 5.40823 2.41037 5.29083 2.45902C5.17343 2.50768 5.06692 2.57927 4.97753 2.66962L4.28267 3.36368C2.46235 5.18401 1.93066 8.13935 2.7855 11.6805C3.69049 15.4318 6.02022 19.3295 9.34488 22.6534C12.6695 25.9773 16.5665 28.3046 20.3186 29.2128C23.8605 30.0676 26.8143 29.5359 28.6346 27.7156L29.3287 27.0215C29.51 26.8401 29.6119 26.594 29.6119 26.3374C29.6119 26.0809 29.51 25.8348 29.3287 25.6533L25.3418 21.6656C25.1603 21.4843 24.9142 21.3824 24.6577 21.3824C24.4011 21.3824 24.155 21.4843 23.9736 21.6656L20.988 24.6512C20.8088 24.8305 20.5773 24.9481 20.3269 24.987C20.0765 25.0259 19.8202 24.9841 19.5951 24.8677C17.1475 23.6022 14.6801 21.7596 12.4594 19.5389C10.2387 17.3182 8.4001 14.8523 7.13136 12.4048C7.01485 12.1798 6.97295 11.9235 7.01173 11.6731C7.05051 11.4227 7.16795 11.1912 7.34706 11.0119L10.3334 8.02632C10.5148 7.84484 10.6167 7.59877 10.6167 7.34221C10.6167 7.08565 10.5148 6.83958 10.3334 6.6581L6.34576 2.66962C6.2561 2.57943 6.14942 2.50794 6.03192 2.4593C5.91441 2.41066 5.78842 2.38583 5.66125 2.38626Z" fill="#242424"/>
<path d="M24.7266 17.647C24.4099 17.647 24.1062 17.5212 23.8823 17.2973C23.6584 17.0734 23.5326 16.7697 23.5326 16.4531C23.5303 14.3585 22.6973 12.3505 21.2163 10.8694C19.7354 9.38825 17.7274 8.55504 15.6329 8.55251C15.3162 8.55251 15.0126 8.42672 14.7887 8.20282C14.5648 7.97891 14.439 7.67524 14.439 7.35859C14.439 7.04194 14.5648 6.73827 14.7887 6.51436C15.0126 6.29046 15.3162 6.16467 15.6329 6.16467C21.3056 6.16467 25.9205 10.7812 25.9205 16.4531C25.9205 16.7697 25.7947 17.0734 25.5708 17.2973C25.3469 17.5212 25.0432 17.647 24.7266 17.647Z" fill="#242424"/>
<path d="M29.7728 17.6469C29.4562 17.6469 29.1525 17.5212 28.9286 17.2972C28.7047 17.0733 28.5789 16.7697 28.5789 16.453C28.5789 9.31419 22.7685 3.50618 15.6329 3.50618C15.3162 3.50618 15.0126 3.38039 14.7887 3.15649C14.5648 2.93259 14.439 2.62891 14.439 2.31226C14.439 1.99562 14.5648 1.69194 14.7887 1.46804C15.0126 1.24413 15.3162 1.11835 15.6329 1.11835C24.0882 1.11835 30.9668 7.9977 30.9668 16.453C30.9668 16.7697 30.841 17.0733 30.6171 17.2972C30.3932 17.5212 30.0895 17.6469 29.7728 17.6469Z" fill="#242424"/>
</svg>
